<?xml version="1.0" standalone="no"?>
<!DOCTYPE svg PUBLIC "-//W3C//DTD SVG 20010904//EN"
 "http://www.w3.org/TR/2001/REC-SVG-20010904/DTD/svg10.dtd">
<svg version="1.0" xmlns="http://www.w3.org/2000/svg"
 width="1414.000000pt" height="846.000000pt" viewBox="0 0 1414.000000 846.000000"
 preserveAspectRatio="xMidYMid meet">

<g transform="translate(0.000000,846.000000) scale(0.100000,-0.100000)"
fill="#000000" stroke="none">
<path d="M0 4230 l0 -4230 7070 0 7070 0 0 4230 0 4230 -7070 0 -7070 0 0
-4230z m10110 2676 c0 -2 -26 -13 -57 -24 -453 -156 -2643 -931 -2662 -942
-12 -6 -11 -10 5 -18 10 -6 129 -71 263 -145 135 -74 246 -138 248 -143 4 -11
-17 -20 -288 -134 -232 -97 -492 -191 -714 -258 -364 -110 -492 -127 -900
-119 -183 3 -365 13 -495 26 -426 44 -583 52 -739 41 -155 -12 -323 -42 -511
-92 -63 -16 -120 -32 -127 -35 -8 -3 -13 3 -13 18 0 50 -13 55 -77 30 -147
-60 -403 -207 -403 -231 0 -6 25 -61 56 -121 31 -61 54 -112 52 -114 -3 -3
-138 151 -201 231 l-18 23 113 74 c230 152 482 277 715 353 241 79 459 106
704 84 79 -7 154 -13 166 -14 13 0 47 22 92 64 157 142 331 249 571 350 164
70 597 217 662 226 43 6 44 6 132 -78 l89 -84 -164 -43 c-186 -49 -530 -161
-664 -216 -189 -78 -455 -226 -455 -254 0 -19 178 -36 370 -35 288 1 491 27
790 101 209 51 644 203 628 218 -3 3 -128 98 -279 211 -151 113 -275 209 -277
214 -4 11 -56 -3 728 190 525 129 2533 623 2615 643 28 7 45 8 45 3z m-81
-480 c-2 -2 -444 -169 -983 -370 l-978 -365 -97 65 c-126 84 -136 92 -127 101
9 9 2141 571 2170 572 11 1 17 -1 15 -3z m-199 -557 c-14 -6 -382 -141 -818
-299 -436 -159 -802 -295 -814 -301 -20 -11 -116 -80 -638 -463 -113 -82 -232
-166 -265 -186 -125 -77 -286 -113 -553 -125 -198 -9 -1038 6 -962 17 30 4
170 21 310 38 739 89 929 132 1108 250 88 57 462 348 712 554 l135 110 880
207 c484 114 891 207 905 207 l25 1 -25 -10z m-497 -562 c-156 -78 -283 -144
-283 -147 0 -3 31 -21 69 -39 138 -66 258 -190 327 -338 34 -71 68 -195 61
-216 -2 -7 -20 20 -41 60 -74 141 -200 263 -343 333 -192 93 -464 93 -657 -1
-141 -69 -277 -200 -344 -331 l-33 -63 6 55 c13 113 99 277 198 373 57 56 136
110 212 145 48 22 1063 310 1095 311 8 0 -112 -64 -267 -142z m-4292 -263
c166 -54 299 -180 359 -342 24 -62 41 -142 31 -142 -3 0 -22 30 -41 67 -63
122 -192 231 -331 280 -98 34 -243 42 -344 19 -161 -38 -311 -146 -390 -281
-21 -37 -41 -63 -43 -57 -6 20 49 164 84 220 88 137 243 237 408 262 76 12
182 2 267 -26z m-1373 -570 c32 -10 102 -25 157 -34 l100 -18 -189 -1 c-206
-1 -194 -5 -147 52 17 21 11 21 79 1z m-1178 -775 c155 -25 238 -98 254 -224
9 -73 5 -76 -110 -73 -90 3 -99 5 -102 23 -4 23 -38 62 -66 77 -32 17 -134 27
-195 18 -81 -11 -129 -36 -149 -76 -29 -61 7 -81 217 -124 242 -49 324 -89
356 -174 48 -126 -33 -283 -175 -344 -96 -40 -141 -47 -310 -47 -150 0 -171 3
-225 24 -107 42 -165 124 -165 235 l0 47 101 -3 101 -3 12 -35 c8 -25 23 -41
56 -60 41 -23 56 -25 160 -25 105 0 120 2 171 28 40 19 60 36 69 57 26 62 -6
80 -201 115 -246 44 -332 84 -371 172 -40 92 -2 225 85 297 104 85 305 125
487 95z m1100 -21 c12 -29 200 -877 200 -901 0 -16 -10 -17 -107 -15 l-108 3
-14 63 -15 62 -235 0 -236 0 -35 -63 -36 -62 -112 -3 c-62 -1 -112 -1 -112 2
0 5 500 873 526 914 14 21 21 22 144 22 126 0 131 -1 140 -22z m1293 15 c3 -5
-2 -46 -11 -93 l-17 -85 -281 -3 -282 -2 -17 -93 c-9 -50 -19 -102 -22 -114
l-5 -23 248 -2 c214 -3 249 -5 247 -18 -1 -8 -7 -48 -13 -87 l-12 -73 -248 0
c-228 0 -249 -1 -254 -17 -2 -10 -15 -76 -27 -148 -32 -190 -20 -175 -140
-175 l-101 0 6 28 c3 15 39 221 81 457 42 237 78 436 80 443 3 9 89 12 384 12
209 0 382 -3 384 -7z m651 -2 c7 -11 206 -899 206 -917 0 -18 -205 -20 -216
-3 -4 6 -12 35 -18 63 l-11 51 -235 3 -235 2 -35 -62 -36 -63 -109 0 c-68 0
-109 4 -108 10 4 21 515 901 531 913 19 14 257 17 266 3z m1109 0 c89 -12 154
-46 192 -100 28 -40 30 -49 30 -134 0 -80 -4 -100 -29 -154 -34 -74 -101 -141
-168 -169 -27 -10 -48 -22 -48 -27 0 -4 36 -79 80 -167 44 -88 80 -164 80
-170 0 -6 -42 -10 -108 -10 l-107 0 -85 170 -85 170 -112 0 c-109 0 -113 -1
-118 -22 -2 -13 -14 -77 -25 -143 -11 -66 -23 -132 -26 -147 l-6 -28 -98 0
c-54 0 -101 3 -103 8 -8 13 155 917 167 924 16 11 487 9 569 -1z m691 1 c2 -4
-33 -214 -78 -467 l-82 -460 -102 -3 c-100 -3 -102 -2 -102 20 1 34 156 893
164 907 8 13 192 16 200 3z m790 -16 c212 -58 306 -219 266 -455 -33 -197
-174 -358 -375 -428 -78 -27 -86 -27 -342 -31 -250 -4 -263 -3 -263 15 -1 39
154 899 164 912 16 20 466 9 550 -13z m1208 -5 c64 -25 109 -70 128 -126 18
-54 8 -179 -18 -237 -29 -66 -101 -140 -164 -168 -29 -13 -54 -25 -56 -26 -2
-1 33 -77 78 -169 44 -93 80 -172 80 -177 0 -5 -48 -7 -107 -6 l-108 3 -85
167 -85 168 -108 0 c-83 0 -109 -3 -113 -14 -3 -8 -18 -83 -33 -167 l-27 -154
-102 -3 c-96 -3 -102 -2 -102 17 0 34 150 875 161 900 l10 23 297 -4 c277 -4
301 -6 354 -27z m601 22 c3 -5 -32 -215 -77 -468 l-82 -460 -102 -3 c-92 -2
-102 -1 -102 15 0 30 150 876 160 901 9 21 15 22 104 22 52 0 97 -3 99 -7z
m1007 -6 c0 -14 -16 -114 -25 -154 l-5 -23 -283 0 -283 0 -17 -102 c-10 -57
-17 -109 -17 -115 0 -10 56 -13 245 -13 207 0 245 -2 245 -15 0 -12 -10 -69
-26 -142 l-4 -23 -245 0 c-149 0 -246 -4 -250 -10 -3 -5 -17 -72 -30 -147 -14
-76 -27 -148 -30 -160 -5 -22 -10 -23 -105 -23 -96 0 -100 1 -100 22 0 41 153
893 163 906 14 18 767 18 767 -1z m1026 0 c3 -8 -1 -49 -8 -93 l-14 -79 -179
-5 -179 -5 -66 -370 -65 -370 -103 -3 c-101 -3 -102 -2 -101 20 0 13 28 181
63 373 l62 350 -166 3 c-91 1 -170 4 -176 6 -9 3 -8 25 2 83 8 43 17 84 19 91
7 18 903 18 911 -1z m-9909 -1579 c6 -7 13 -37 16 -67 6 -52 -3 -87 -27 -103
-15 -10 -156 -10 -156 0 0 4 7 45 15 92 8 47 15 86 15 88 0 9 129 0 137 -10z
m187 -30 c-4 -24 -8 -56 -8 -73 -1 -26 3 -30 30 -33 40 -4 53 13 68 85 9 49
15 58 35 61 22 4 23 2 17 -35 -14 -74 -26 -110 -45 -127 -44 -40 -129 -36
-148 7 -7 15 -8 42 -1 81 11 71 13 76 39 76 19 0 20 -4 13 -42z m301 27 c0 -5
-6 -47 -14 -92 -13 -78 -15 -83 -38 -83 -22 0 -24 3 -19 28 3 15 11 58 17 95
10 61 13 68 33 65 11 -2 21 -7 21 -13z m161 -17 c-4 -18 -9 -52 -13 -75 l-6
-43 50 0 c54 0 64 -5 56 -26 -4 -10 -26 -14 -84 -14 -77 0 -79 1 -75 23 3 12
10 49 16 82 15 82 17 85 41 85 19 0 21 -4 15 -32z m354 12 c0 -16 -7 -20 -35
-20 -38 0 -38 0 -53 -95 -6 -42 -11 -51 -31 -53 -26 -4 -26 -2 -5 116 6 31 5
32 -30 32 -39 0 -39 0 -30 24 5 13 23 16 95 16 82 0 89 -1 89 -20z m458 -2 c3
-16 -5 -18 -57 -18 -54 0 -61 -2 -61 -19 0 -16 8 -20 43 -23 34 -2 42 -7 42
-23 0 -17 -8 -21 -50 -25 -46 -5 -50 -7 -53 -32 -3 -22 -9 -28 -28 -28 -29 0
-28 -7 -8 103 l16 88 77 -3 c63 -3 76 -6 79 -20z m269 -4 c50 -50 10 -146 -68
-163 -94 -21 -144 39 -103 125 32 66 123 86 171 38z m293 6 c26 -26 25 -42 -5
-79 -25 -29 -25 -31 -10 -61 15 -30 15 -30 -9 -30 -18 0 -30 9 -41 31 -21 40
-58 38 -63 -3 -3 -22 -9 -28 -28 -28 -13 0 -24 2 -24 4 0 13 32 172 36 178 3
5 32 8 65 8 46 0 63 -4 79 -20z m448 3 c5 -10 14 -45 21 -78 7 -33 15 -68 17
-77 4 -14 -1 -18 -20 -18 -14 0 -26 5 -26 10 0 6 -22 10 -50 10 -27 0 -50 -4
-50 -10 0 -5 -11 -10 -25 -10 -14 0 -25 3 -25 6 0 4 23 47 51 95 41 73 55 89
74 89 14 0 28 -8 33 -17z m323 -12 c31 -38 25 -87 -15 -127 -32 -32 -38 -34
-101 -34 -65 0 -67 1 -62 23 3 12 11 51 17 87 7 36 14 69 17 73 3 5 33 7 66 5
47 -4 64 -9 78 -27z m167 12 c6 -10 13 -37 17 -60 4 -24 10 -45 15 -48 5 -3
25 24 45 60 25 45 42 65 55 65 11 0 20 -5 20 -10 0 -6 -21 -48 -47 -95 -44
-78 -50 -85 -80 -85 -31 0 -31 0 -51 87 -11 48 -18 91 -16 95 9 14 33 8 42 -9z
m412 -3 c0 -16 -8 -19 -57 -22 -44 -2 -58 -7 -58 -18 0 -11 13 -16 48 -18 39
-3 48 -6 45 -20 -2 -12 -17 -18 -52 -22 -69 -7 -72 -28 -4 -32 39 -2 53 -7 53
-18 0 -12 -17 -16 -77 -18 -89 -3 -86 -8 -67 94 17 100 11 94 95 94 67 0 74
-2 74 -20z m203 -41 c37 -65 38 -65 52 13 6 40 18 53 39 45 11 -4 10 -22 -3
-96 l-15 -91 -31 0 c-28 0 -34 6 -59 58 -31 62 -38 60 -51 -20 -5 -31 -10 -38
-29 -38 l-23 0 14 83 c19 108 19 107 47 107 20 0 32 -12 59 -61z m390 55 c14
-15 -8 -34 -39 -34 -30 0 -34 -3 -40 -37 -18 -104 -19 -108 -43 -111 -22 -3
-23 -1 -18 30 4 18 9 52 13 76 l7 42 -36 0 c-30 0 -34 3 -30 20 5 18 14 20 92
20 48 0 90 -3 94 -6z m147 -6 c0 -7 -5 -33 -11 -57 -13 -58 -5 -81 30 -81 38
0 52 19 65 88 10 48 15 58 35 60 22 4 23 1 17 -35 -14 -74 -26 -110 -45 -127
-46 -42 -136 -36 -147 10 -7 26 2 129 12 145 8 14 44 11 44 -3z m400 -6 c27
-22 22 -60 -11 -91 -19 -18 -20 -21 -5 -50 16 -31 16 -31 -8 -31 -18 0 -30 9
-41 31 -21 40 -58 38 -63 -3 -3 -22 -9 -28 -28 -28 -13 0 -24 1 -24 3 0 15 31
170 35 177 11 18 121 12 145 -8z m295 -2 c0 -11 -14 -16 -57 -18 -50 -3 -58
-6 -58 -22 0 -17 7 -20 46 -20 38 0 45 -3 42 -17 -2 -13 -16 -19 -52 -23 -72
-7 -73 -30 -2 -30 49 0 56 -2 56 -20 0 -18 -7 -20 -80 -20 -57 0 -80 4 -80 13
0 6 7 47 15 90 8 43 15 81 15 83 0 3 35 4 78 2 60 -2 77 -6 77 -18z m589 9
c36 -17 51 -59 36 -104 -17 -52 -60 -75 -136 -75 l-61 0 14 83 c8 45 16 88 18
95 5 15 95 16 129 1z m300 1 c34 -12 36 -63 4 -97 -18 -20 -20 -26 -10 -48 16
-34 16 -35 -12 -35 -17 0 -27 9 -36 30 -9 21 -19 30 -35 30 -17 0 -24 -7 -28
-30 -5 -21 -12 -30 -27 -30 -23 0 -24 5 -10 86 20 112 14 104 75 104 29 0 65
-4 79 -10z m196 -2 c0 -7 -7 -48 -15 -91 -8 -43 -15 -81 -15 -83 0 -2 -11 -4
-24 -4 l-23 0 14 83 c19 107 19 107 43 107 11 0 20 -6 20 -12z m148 -5 c6 -10
13 -37 17 -60 4 -24 10 -45 14 -47 4 -3 24 24 44 60 26 45 43 64 57 64 29 0
25 -16 -29 -105 -41 -69 -52 -80 -78 -83 l-31 -3 -21 89 c-12 49 -21 92 -21
96 0 14 40 5 48 -11z m417 -3 c0 -11 -14 -16 -57 -18 -50 -3 -58 -6 -58 -22 0
-17 7 -20 46 -20 38 0 45 -3 42 -17 -2 -13 -16 -19 -52 -23 -69 -7 -72 -28 -4
-32 41 -2 54 -7 56 -20 3 -16 -6 -18 -77 -18 -58 0 -81 4 -81 13 0 6 7 47 15
90 8 43 15 81 15 83 0 3 35 4 78 2 60 -2 77 -6 77 -18z m196 -41 c16 -34 33
-59 36 -55 3 3 9 26 14 53 10 53 21 68 42 60 12 -4 12 -18 -2 -96 l-15 -91
-31 0 c-28 0 -34 6 -55 51 -13 28 -27 52 -31 55 -4 2 -13 -21 -19 -51 -9 -44
-15 -55 -31 -55 -22 0 -23 9 -8 99 14 90 15 91 44 91 20 0 30 -11 56 -61z
m548 51 c15 -8 19 -22 19 -80 1 -88 -12 -100 -110 -100 -77 0 -75 -4 -57 96
17 98 14 94 75 94 31 0 63 -4 73 -10z m193 -22 l27 -33 33 33 c31 29 78 44 78
24 0 -4 -23 -30 -50 -57 -37 -37 -52 -60 -57 -87 -4 -31 -10 -38 -28 -38 -21
0 -23 3 -18 40 5 33 0 49 -25 89 -17 27 -28 52 -24 55 14 14 39 4 64 -26z
m572 22 c21 -8 26 -16 26 -43 0 -45 -25 -66 -88 -74 -45 -5 -51 -8 -56 -34 -4
-21 -11 -29 -26 -29 -23 0 -24 5 -10 86 20 112 14 104 75 104 29 0 65 -4 79
-10z m240 2 c3 -5 14 -48 25 -95 l19 -87 -23 0 c-13 0 -27 5 -30 10 -8 13 -88
13 -102 -1 -6 -6 -20 -9 -31 -7 -19 3 -16 11 34 96 45 75 59 92 79 92 13 0 26
-4 29 -8z m316 -12 c11 -11 20 -25 20 -30 0 -19 -31 -23 -50 -5 -20 18 -61 17
-67 -1 -2 -6 16 -16 40 -23 53 -13 71 -32 63 -66 -8 -32 -38 -47 -97 -48 -51
-1 -79 15 -79 44 0 20 34 27 45 9 3 -5 24 -10 46 -10 52 0 48 20 -7 35 -55 14
-64 22 -64 55 0 22 7 33 28 44 40 22 98 20 122 -4z m282 3 c24 -21 24 -53 -1
-53 -10 0 -24 7 -31 16 -15 17 -61 15 -67 -2 -2 -6 20 -17 49 -25 49 -13 53
-17 56 -46 3 -25 -2 -35 -22 -48 -35 -23 -111 -23 -136 0 -27 25 -25 45 5 45
14 0 25 -5 25 -11 0 -6 17 -9 43 -7 52 4 55 19 4 30 -56 12 -77 26 -77 53 0
54 108 88 152 48z m188 10 c0 -5 -7 -47 -16 -95 -15 -82 -18 -88 -40 -88 -20
0 -24 4 -20 23 3 12 10 49 16 82 6 33 13 66 15 73 5 13 45 17 45 5z m277 -19
c21 -21 25 -32 20 -66 -13 -94 -133 -139 -188 -69 -15 19 -19 35 -15 60 14 87
125 133 183 75z m234 -36 c35 -69 38 -67 54 25 4 28 11 37 25 37 24 0 25 -23
6 -120 -11 -61 -14 -65 -41 -68 -27 -2 -33 3 -59 53 -15 30 -32 53 -36 50 -4
-2 -10 -27 -14 -55 -6 -45 -9 -50 -32 -50 -20 0 -24 4 -19 23 2 12 10 51 16
87 13 78 14 80 44 80 20 0 31 -12 56 -62z m-4573 -105 c-2 -10 -13 -19 -26
-21 -24 -4 -25 -2 -16 22 9 23 46 21 42 -1z m4802 -3 c0 -13 -7 -20 -20 -20
-19 0 -27 20 -13 33 13 14 33 6 33 -13z"/>
<path d="M3370 3400 c-23 -41 -74 -128 -111 -193 -38 -65 -69 -122 -69 -128 0
-5 65 -9 155 -9 124 0 155 3 155 14 0 11 -74 346 -84 381 -1 5 -22 -24 -46
-65z"/>
<path d="M5249 3279 c-57 -100 -105 -188 -107 -195 -3 -11 26 -14 152 -14 86
0 156 3 156 8 0 21 -85 382 -90 382 -3 0 -53 -82 -111 -181z"/>
<path d="M6225 3413 c-9 -54 -19 -106 -21 -115 -5 -17 8 -18 174 -18 169 0
181 1 213 23 67 45 90 137 44 182 -24 25 -26 25 -208 25 l-185 0 -17 -97z"/>
<path d="M7697 3237 c-26 -149 -47 -278 -47 -284 0 -17 171 -18 256 -2 145 26
244 125 275 275 22 107 -6 191 -80 241 -51 35 -95 43 -231 43 l-125 0 -48
-273z"/>
<path d="M8845 3498 c-7 -21 -35 -183 -35 -201 0 -15 18 -17 173 -17 154 0
175 2 205 20 70 43 95 138 47 185 -24 25 -26 25 -205 25 -136 0 -182 -3 -185
-12z"/>
<path d="M1960 2065 c0 -10 10 -15 30 -15 20 0 30 5 30 15 0 10 -10 15 -30 15
-20 0 -30 -5 -30 -15z"/>
<path d="M1946 1994 c-9 -25 -8 -25 36 -22 31 2 44 8 46 21 3 14 -4 17 -36 17
-27 0 -42 -5 -46 -16z"/>
<path d="M3669 2059 c-14 -14 -19 -30 -17 -52 3 -28 7 -32 36 -35 41 -4 72 21
72 58 0 51 -52 68 -91 29z"/>
<path d="M3970 2060 c0 -18 5 -21 38 -18 25 2 37 8 37 18 0 10 -12 16 -37 18
-33 3 -38 0 -38 -18z"/>
<path d="M4470 2031 c-15 -29 -12 -41 10 -41 16 0 20 7 20 30 0 34 -14 39 -30
11z"/>
<path d="M4745 2071 c-3 -5 -9 -30 -14 -55 l-8 -46 32 0 c32 0 56 19 68 53 12
33 -59 77 -78 48z"/>
<path d="M6460 2060 c0 -18 5 -21 38 -18 25 2 37 8 37 18 0 10 -12 16 -37 18
-33 3 -38 0 -38 -18z"/>
<path d="M7367 2073 c-3 -5 -8 -29 -11 -55 l-7 -48 30 0 c56 0 91 59 55 94
-16 16 -59 22 -67 9z"/>
<path d="M7656 2065 c-9 -25 -9 -25 35 -25 33 0 40 3 37 18 -4 24 -63 29 -72
7z"/>
<path d="M9167 2074 c-12 -12 4 -24 34 -24 19 0 29 5 29 15 0 15 -50 22 -63 9z"/>
<path d="M9157 2003 c-19 -18 -5 -33 32 -33 36 0 59 18 44 34 -8 8 -68 8 -76
-1z"/>
<path d="M9926 2065 c-9 -25 -9 -25 35 -25 33 0 40 3 37 18 -4 24 -63 29 -72
7z"/>
<path d="M10208 2030 c-18 -31 -15 -40 14 -40 19 0 22 20 10 52 -6 15 -10 13
-24 -12z"/>
<path d="M11210 2058 c-14 -15 -20 -33 -18 -53 3 -26 7 -30 36 -33 41 -4 72
21 72 58 0 52 -52 68 -90 28z"/>
</g>
</svg>
