<svg xmlns="http://www.w3.org/2000/svg" width="1826" height="538" viewBox="0 0 1826 538">
<g>
<path d="M 437.65 406.61 C433.47,407.72 415.78,407.98 344.00,407.98 C259.58,407.99 255.36,407.91 252.50,406.14 C250.85,405.12 248.60,403.27 247.50,402.04 C245.56,399.86 245.49,398.17 245.22,346.40 C245.22,344.92 245.21,343.48 245.20,342.08 C244.97,297.23 244.93,290.14 248.44,286.89 C249.21,286.18 250.15,285.66 251.30,284.96 C254.41,283.06 257.00,283.01 344.16,283.00 C428.12,283.00 434.19,283.12 439.66,284.82 C455.99,289.92 469.78,305.41 475.87,325.49 C477.86,332.04 478.30,335.68 478.31,345.50 C478.32,355.87 477.95,358.65 475.58,366.00 C468.83,386.90 454.65,402.08 437.65,406.61 ZM 457.22 241.82 L 451.50 244.50 L 357.50 244.76 C265.60,245.01 263.43,244.97 260.30,243.05 C256.13,240.50 254.00,236.23 254.00,230.43 C254.00,226.34 254.48,225.28 257.88,221.88 L 261.76 218.00 L 352.41 218.00 C429.19,218.00 443.59,217.78 446.52,216.56 C453.38,213.69 455.01,203.51 449.33,199.04 C446.76,197.02 445.79,197.00 365.05,197.00 C310.40,197.00 281.42,196.64 277.47,195.91 C265.07,193.62 253.48,184.79 248.37,173.72 C245.85,168.25 245.50,166.36 245.50,157.98 C245.50,149.26 245.77,147.90 248.74,141.87 C252.64,133.94 259.80,126.92 267.78,123.18 L 273.50 120.50 L 367.00 120.24 C454.63,119.99 460.71,120.09 463.92,121.74 C470.65,125.21 473.01,134.70 468.73,141.10 C467.96,142.25 467.47,143.21 466.79,144.01 C463.36,148.02 455.23,148.02 384.38,148.00 C379.46,148.00 374.23,148.00 368.67,148.00 L 277.85 148.00 L 274.92 150.92 C270.10,155.75 271.27,163.79 277.30,167.24 C279.00,168.21 299.00,168.61 365.50,169.00 L 451.50 169.50 L 457.18 172.16 C468.69,177.56 476.69,188.15 479.09,201.17 C482.10,217.54 473.03,234.41 457.22,241.82 ZM 1250.96 242.38 C1244.84,247.53 1234.74,244.84 1230.72,236.98 C1229.08,233.77 1228.97,230.21 1229.28,191.50 C1229.52,162.07 1229.99,148.40 1230.84,145.82 C1234.57,134.54 1246.49,123.34 1257.26,121.00 C1261.00,120.19 1285.63,119.96 1343.52,120.18 L 1424.54 120.50 L 1431.20 123.78 C1443.20,129.68 1452.23,141.74 1453.65,153.73 C1454.80,163.39 1449.88,170.85 1441.83,171.67 C1433.52,172.51 1427.57,167.36 1426.09,158.03 C1425.46,154.04 1424.53,151.99 1422.56,150.30 L 1419.89 148.00 L 1341.08 148.00 C1333.04,148.00 1325.75,147.99 1319.16,147.98 C1270.30,147.92 1259.28,147.90 1257.22,152.20 C1256.62,153.44 1256.77,155.06 1256.97,157.14 C1257.07,158.11 1257.17,159.17 1257.21,160.35 L 1257.50 168.50 L 1302.50 169.08 C1341.88,169.58 1349.27,169.93 1361.68,171.84 C1396.99,177.28 1419.77,188.09 1438.70,208.37 C1447.34,217.64 1454.00,227.33 1454.00,230.65 C1454.00,237.56 1448.41,243.97 1441.73,244.73 C1436.46,245.32 1432.41,243.50 1428.53,238.79 C1422.57,231.54 1410.19,219.57 1405.00,216.02 C1394.22,208.67 1380.67,202.91 1367.50,200.10 C1355.81,197.59 1343.13,197.00 1301.28,197.00 L 1257.00 197.00 L 1257.00 215.55 C1257.00,235.90 1256.61,237.62 1250.96,242.38 ZM 578.80 406.60 C575.13,408.51 571.22,408.29 566.77,405.94 C565.38,405.21 564.27,404.66 563.39,403.85 C559.90,400.69 559.95,393.63 560.19,356.16 L 560.21 353.72 L 560.50 309.50 L 563.31 303.78 C567.01,296.25 573.71,289.49 580.78,286.18 L 586.50 283.50 L 755.50 283.50 L 762.09 286.72 C774.04,292.57 782.61,304.56 783.74,317.02 C784.37,323.97 783.01,327.97 778.84,331.48 C774.55,335.09 769.94,335.63 764.76,333.13 C759.81,330.73 757.52,327.38 756.51,321.00 C756.08,318.28 754.77,315.41 753.21,313.75 L 750.63 311.00 L 591.15 311.00 L 589.03 313.68 C587.23,315.97 586.97,317.48 587.21,323.93 L 587.50 331.50 L 634.50 332.11 C683.41,332.74 689.68,333.23 709.40,337.92 C739.53,345.10 762.90,360.34 779.20,383.45 C783.83,390.00 784.14,390.84 783.73,395.31 C782.96,403.60 775.06,409.49 767.32,407.55 C765.73,407.15 759.53,401.68 752.07,394.10 C738.20,380.00 728.64,373.32 714.57,367.89 C696.19,360.81 677.65,359.05 620.81,359.02 L 587.11 359.00 L 586.81 379.42 C586.50,399.63 586.47,399.87 584.00,402.52 C582.62,403.99 580.28,405.82 578.80,406.60 ZM 272.78 345.50 L 272.50 380.00 L 350.07 380.00 C353.34,380.00 356.48,380.00 359.50,380.00 C423.53,380.01 432.10,380.01 437.77,375.96 C438.92,375.14 439.94,374.16 441.28,372.98 C452.11,363.45 455.37,340.45 447.96,325.91 C445.42,320.93 437.05,313.63 432.24,312.19 C429.32,311.31 407.72,311.00 350.66,311.00 L 273.05 311.00 ZM 1403.72 406.33 C1397.45,409.31 1391.69,407.87 1386.50,402.04 C1384.61,399.91 1384.48,398.15 1384.21,368.65 C1383.89,334.86 1384.55,328.61 1389.62,317.13 C1390.93,314.17 1392.00,311.62 1392.00,311.45 C1392.00,311.29 1370.29,311.00 1343.75,310.83 C1295.62,310.50 1295.49,310.49 1291.86,308.23 C1283.18,302.84 1282.85,290.35 1291.25,285.15 L 1294.74 283.00 L 1397.62 283.00 C1497.89,283.01 1500.58,283.06 1503.70,284.96 C1512.44,290.29 1511.92,303.72 1502.79,308.70 C1499.86,310.30 1495.75,310.56 1465.50,311.00 C1433.05,311.48 1431.32,311.60 1427.50,313.66 C1418.98,318.27 1413.63,326.58 1412.02,337.71 C1411.48,341.44 1411.03,356.65 1411.02,371.50 C1410.99,401.80 1410.74,403.00 1403.72,406.33 ZM 994.10 405.73 C992.23,406.98 989.31,408.00 987.60,408.00 C983.50,408.00 978.14,405.18 975.57,401.68 C973.61,399.01 973.48,397.35 973.20,370.73 C973.03,354.09 973.35,339.77 973.98,335.69 C977.39,313.74 989.50,295.81 1006.64,287.33 L 1014.39 283.50 L 1104.83 283.22 C1111.10,283.21 1116.95,283.19 1122.41,283.17 C1190.04,282.94 1197.59,282.92 1200.41,286.55 C1201.00,287.30 1201.38,288.21 1202.04,289.30 C1204.71,293.68 1204.58,299.85 1201.71,304.10 C1201.03,305.11 1200.57,305.96 1199.95,306.68 C1196.47,310.73 1188.04,310.53 1107.00,311.00 L 1020.50 311.50 L 1016.41 313.69 C1012.05,316.02 1006.94,321.27 1004.64,325.76 C1001.67,331.57 1001.00,339.35 1001.00,367.80 C1001.00,399.86 1000.73,401.30 994.10,405.73 ZM 763.70 243.04 C760.64,244.91 755.18,245.48 752.00,244.27 C749.49,243.32 745.57,239.96 744.29,237.67 C743.41,236.10 743.06,227.05 743.04,205.20 C742.99,170.13 743.60,165.86 750.66,151.14 C758.31,135.19 772.04,123.78 786.89,121.01 C794.51,119.58 961.73,119.64 965.60,121.07 C975.27,124.63 976.50,138.96 967.68,145.43 C964.89,147.48 963.88,147.51 877.68,148.00 C790.68,148.50 790.49,148.50 786.50,150.66 C777.89,155.31 772.74,163.51 771.11,175.14 C770.62,178.64 770.15,193.87 770.07,208.99 C769.90,239.16 769.88,239.27 763.70,243.04 ZM 530.95 241.25 C527.70,244.40 526.39,245.00 522.79,245.00 C515.64,244.99 510.01,240.41 508.56,233.42 C508.39,232.64 508.20,232.03 508.12,231.41 C507.63,227.77 510.69,223.64 543.03,180.17 C545.18,177.29 547.45,174.24 549.85,171.00 C582.59,126.98 583.85,125.35 587.36,122.68 C596.25,115.91 607.23,113.14 617.83,114.98 C624.83,116.20 628.56,117.78 633.91,121.79 C637.03,124.13 709.65,220.20 712.68,226.00 C718.41,236.96 705.16,249.27 693.91,243.45 C691.92,242.43 679.30,226.36 656.40,195.70 C637.42,170.29 620.26,148.04 618.28,146.25 C613.01,141.51 609.13,141.78 603.55,147.25 C601.17,149.59 584.73,170.85 567.02,194.50 C549.31,218.15 533.08,239.19 530.95,241.25 ZM 1017.12 242.40 C1015.91,243.49 1013.00,244.48 1010.26,244.73 C1004.51,245.27 999.51,242.42 996.70,236.98 C993.20,230.24 994.18,228.22 1013.81,201.77 C1023.71,188.42 1039.48,167.15 1048.86,154.50 C1071.32,124.18 1072.55,122.83 1081.58,118.36 C1088.48,114.95 1089.70,114.68 1097.77,114.70 C1107.34,114.73 1112.91,116.30 1119.43,120.79 C1124.01,123.94 1197.42,221.16 1199.83,227.26 C1201.82,232.31 1200.20,237.74 1195.45,241.91 C1191.20,245.64 1185.30,246.09 1180.31,243.05 C1178.33,241.84 1164.64,224.39 1144.41,197.30 C1126.42,173.21 1109.42,151.14 1106.63,148.25 C1100.37,141.75 1097.00,141.30 1091.42,146.21 C1089.41,147.97 1072.34,169.91 1053.49,194.96 C1034.64,220.01 1018.27,241.35 1017.12,242.40 ZM 956.41 196.04 C951.76,197.12 806.91,197.13 802.39,196.05 C795.06,194.30 790.37,187.75 791.33,180.61 C791.74,177.49 792.84,175.60 795.92,172.74 L 799.96 168.96 L 960.23 169.50 L 963.71 173.50 C966.97,177.26 967.16,177.85 966.77,183.30 C966.43,188.12 965.86,189.60 963.34,192.12 C961.68,193.78 958.56,195.55 956.41,196.04 ZM 1192.96 355.54 L 1189.87 358.50 L 1110.68 358.76 C1035.23,359.00 1031.36,358.93 1028.50,357.17 C1024.42,354.66 1022.95,352.69 1022.00,348.48 C1020.85,343.42 1022.47,338.67 1026.56,335.08 L 1030.07 332.00 L 1109.28 332.00 C1185.52,332.01 1188.62,332.08 1191.64,333.92 C1193.66,335.16 1195.39,337.46 1196.53,340.45 C1198.73,346.20 1197.56,351.13 1192.96,355.54 ZM 1505.05 241.45 C1500.84,245.48 1493.84,246.08 1489.00,242.82 C1482.26,238.27 1482.00,236.91 1482.01,205.00 C1482.01,178.32 1482.13,176.29 1483.99,173.24 C1490.18,163.10 1504.03,163.93 1508.63,174.72 C1510.29,178.61 1510.60,229.30 1509.00,235.06 C1508.46,237.01 1506.68,239.89 1505.05,241.45 ZM 884.51 406.56 C878.46,409.09 872.76,407.70 868.00,402.55 L 865.50 399.84 L 865.21 369.45 C864.96,343.24 865.14,338.64 866.51,335.99 C868.78,331.60 873.54,329.01 879.37,329.00 C883.69,329.00 884.67,329.43 888.12,332.88 L 892.00 336.76 L 892.00 367.63 C891.99,396.83 891.88,398.68 889.97,401.81 C888.86,403.63 886.41,405.77 884.51,406.56 Z" fill="rgb(25,25,25)"/>
<path d="M 1105.75 229.88 C1101.13,232.11 1096.08,232.50 1092.15,230.93 C1081.57,226.69 1077.21,215.60 1082.33,205.91 C1085.49,199.91 1090.68,197.04 1098.38,197.02 C1105.65,197.00 1109.63,199.22 1113.00,205.20 C1118.16,214.36 1114.90,225.45 1105.75,229.88 ZM 618.68 230.06 C611.28,233.42 603.96,231.91 598.53,225.91 C592.47,219.19 591.78,210.84 596.75,204.16 C600.64,198.94 604.62,197.01 611.52,197.00 C619.09,197.00 623.81,199.90 627.02,206.53 C631.21,215.19 627.33,226.13 618.68,230.06 ZM 886.03 311.99 C872.00,319.14 857.48,304.18 865.27,290.60 C871.21,280.24 886.96,280.49 892.25,291.02 C896.04,298.57 893.14,308.36 886.03,311.99 ZM 1502.98 149.25 C1493.67,153.93 1482.22,148.20 1480.50,138.01 C1479.96,134.81 1480.31,132.94 1482.16,129.22 C1489.63,114.16 1511.00,118.81 1511.00,135.50 C1511.00,141.77 1508.16,146.65 1502.98,149.25 Z" fill="rgb(199,54,47)"/>
<path d="M 0.00 269.00 L 0.00 0.00 L 913.00 0.00 L 1826.00 0.00 L 1826.00 269.00 L 1826.00 538.00 L 913.00 538.00 L 0.00 538.00 L 0.00 269.00 ZM 437.65 406.61 C454.65,402.08 468.83,386.90 475.58,366.00 C477.95,358.65 478.32,355.87 478.31,345.50 C478.30,335.68 477.86,332.04 475.87,325.49 C469.78,305.41 455.99,289.92 439.66,284.82 C434.19,283.12 428.12,283.00 344.16,283.00 C257.00,283.01 254.41,283.06 251.30,284.96 C244.76,288.95 244.92,287.33 245.22,346.40 C245.49,398.17 245.56,399.86 247.50,402.04 C248.60,403.27 250.85,405.12 252.50,406.14 C255.36,407.91 259.58,407.99 344.00,407.98 C415.78,407.98 433.47,407.72 437.65,406.61 ZM 578.80 406.60 C580.28,405.82 582.62,403.99 584.00,402.52 C586.47,399.87 586.50,399.63 586.81,379.42 L 587.11 359.00 L 620.81 359.02 C677.65,359.05 696.19,360.81 714.57,367.89 C728.64,373.32 738.20,380.00 752.07,394.10 C759.53,401.68 765.73,407.15 767.32,407.55 C775.06,409.49 782.96,403.60 783.73,395.31 C784.14,390.84 783.83,390.00 779.20,383.45 C762.90,360.34 739.53,345.10 709.40,337.92 C689.68,333.23 683.41,332.74 634.50,332.11 L 587.50 331.50 L 587.21 323.93 C586.97,317.48 587.23,315.97 589.03,313.68 L 591.15 311.00 L 670.89 311.00 L 750.63 311.00 L 753.21 313.75 C754.77,315.41 756.08,318.28 756.51,321.00 C757.52,327.38 759.81,330.73 764.76,333.13 C769.94,335.63 774.55,335.09 778.84,331.48 C783.01,327.97 784.37,323.97 783.74,317.02 C782.61,304.56 774.04,292.57 762.09,286.72 L 755.50 283.50 L 671.00 283.50 L 586.50 283.50 L 580.78 286.18 C573.71,289.49 567.01,296.25 563.31,303.78 L 560.50 309.50 L 560.21 353.72 C559.89,403.15 559.77,402.25 566.77,405.94 C571.22,408.29 575.13,408.51 578.80,406.60 ZM 884.51 406.56 C886.41,405.77 888.86,403.63 889.97,401.81 C891.88,398.68 891.99,396.83 892.00,367.63 L 892.00 336.76 L 888.12 332.88 C884.67,329.43 883.69,329.00 879.37,329.00 C873.54,329.01 868.78,331.60 866.51,335.99 C865.14,338.64 864.96,343.24 865.21,369.45 L 865.50 399.84 L 868.00 402.55 C872.76,407.70 878.46,409.09 884.51,406.56 ZM 994.10 405.73 C1000.73,401.30 1001.00,399.86 1001.00,367.80 C1001.00,339.35 1001.67,331.57 1004.64,325.76 C1006.94,321.27 1012.05,316.02 1016.41,313.69 L 1020.50 311.50 L 1107.00 311.00 C1202.39,310.45 1197.19,310.83 1201.71,304.10 C1204.58,299.85 1204.71,293.68 1202.04,289.30 C1197.89,282.49 1204.82,282.92 1104.83,283.22 L 1014.39 283.50 L 1006.64 287.33 C989.50,295.81 977.39,313.74 973.98,335.69 C973.35,339.77 973.03,354.09 973.20,370.73 C973.48,397.35 973.61,399.01 975.57,401.68 C978.14,405.18 983.50,408.00 987.60,408.00 C989.31,408.00 992.23,406.98 994.10,405.73 ZM 1403.72 406.33 C1410.74,403.00 1410.99,401.80 1411.02,371.50 C1411.03,356.65 1411.48,341.44 1412.02,337.71 C1413.63,326.58 1418.98,318.27 1427.50,313.66 C1431.32,311.60 1433.05,311.48 1465.50,311.00 C1495.75,310.56 1499.86,310.30 1502.79,308.70 C1511.92,303.72 1512.44,290.29 1503.70,284.96 C1500.58,283.06 1497.89,283.01 1397.62,283.00 L 1294.74 283.00 L 1291.25 285.15 C1282.85,290.35 1283.18,302.84 1291.86,308.23 C1295.49,310.49 1295.62,310.50 1343.75,310.83 C1370.29,311.00 1392.00,311.29 1392.00,311.45 C1392.00,311.62 1390.93,314.17 1389.62,317.13 C1384.55,328.61 1383.89,334.86 1384.21,368.65 C1384.48,398.15 1384.61,399.91 1386.50,402.04 C1391.69,407.87 1397.45,409.31 1403.72,406.33 ZM 1192.96 355.54 C1197.56,351.13 1198.73,346.20 1196.53,340.45 C1195.39,337.46 1193.66,335.16 1191.64,333.92 C1188.62,332.08 1185.52,332.01 1109.28,332.00 L 1030.07 332.00 L 1026.56 335.08 C1022.47,338.67 1020.85,343.42 1022.00,348.48 C1022.95,352.69 1024.42,354.66 1028.50,357.17 C1031.36,358.93 1035.23,359.00 1110.68,358.76 L 1189.87 358.50 L 1192.96 355.54 ZM 886.03 311.99 C893.14,308.36 896.04,298.57 892.25,291.02 C886.96,280.49 871.21,280.24 865.27,290.60 C857.48,304.18 872.00,319.14 886.03,311.99 ZM 457.22 241.82 C473.03,234.41 482.10,217.54 479.09,201.17 C476.69,188.15 468.69,177.56 457.18,172.16 L 451.50 169.50 L 365.50 169.00 C299.00,168.61 279.00,168.21 277.30,167.24 C271.27,163.79 270.10,155.75 274.92,150.92 L 277.85 148.00 L 368.67 148.00 C469.98,148.00 463.84,148.42 468.73,141.10 C473.01,134.70 470.65,125.21 463.92,121.74 C460.71,120.09 454.63,119.99 367.00,120.24 L 273.50 120.50 L 267.78 123.18 C259.80,126.92 252.64,133.94 248.74,141.87 C245.77,147.90 245.50,149.26 245.50,157.98 C245.50,166.36 245.85,168.25 248.37,173.72 C253.48,184.79 265.07,193.62 277.47,195.91 C281.42,196.64 310.40,197.00 365.05,197.00 C445.79,197.00 446.76,197.02 449.33,199.04 C455.01,203.51 453.38,213.69 446.52,216.56 C443.59,217.78 429.19,218.00 352.41,218.00 L 261.76 218.00 L 257.88 221.88 C254.48,225.28 254.00,226.34 254.00,230.43 C254.00,236.23 256.13,240.50 260.30,243.05 C263.43,244.97 265.60,245.01 357.50,244.76 L 451.50 244.50 L 457.22 241.82 ZM 530.95 241.25 C533.08,239.19 549.31,218.15 567.02,194.50 C584.73,170.85 601.17,149.59 603.55,147.25 C609.13,141.78 613.01,141.51 618.28,146.25 C620.26,148.04 637.42,170.29 656.40,195.70 C679.30,226.36 691.92,242.43 693.91,243.45 C705.16,249.27 718.41,236.96 712.68,226.00 C709.65,220.20 637.03,124.13 633.91,121.79 C628.56,117.78 624.83,116.20 617.83,114.98 C607.23,113.14 596.25,115.91 587.36,122.68 C583.85,125.35 582.59,126.98 549.85,171.00 C504.90,231.45 507.37,227.72 508.56,233.42 C510.01,240.41 515.64,244.99 522.79,245.00 C526.39,245.00 527.70,244.40 530.95,241.25 ZM 763.70 243.04 C769.88,239.27 769.90,239.16 770.07,208.99 C770.15,193.87 770.62,178.64 771.11,175.14 C772.74,163.51 777.89,155.31 786.50,150.66 C790.49,148.50 790.68,148.50 877.68,148.00 C963.88,147.51 964.89,147.48 967.68,145.43 C976.50,138.96 975.27,124.63 965.60,121.07 C961.73,119.64 794.51,119.58 786.89,121.01 C772.04,123.78 758.31,135.19 750.66,151.14 C743.60,165.86 742.99,170.13 743.04,205.20 C743.06,227.05 743.41,236.10 744.29,237.67 C745.57,239.96 749.49,243.32 752.00,244.27 C755.18,245.48 760.64,244.91 763.70,243.04 ZM 1017.12 242.40 C1018.27,241.35 1034.64,220.01 1053.49,194.96 C1072.34,169.91 1089.41,147.97 1091.42,146.21 C1097.00,141.30 1100.37,141.75 1106.63,148.25 C1109.42,151.14 1126.42,173.21 1144.41,197.30 C1164.64,224.39 1178.33,241.84 1180.31,243.05 C1185.30,246.09 1191.20,245.64 1195.45,241.91 C1200.20,237.74 1201.82,232.31 1199.83,227.26 C1197.42,221.16 1124.01,123.94 1119.43,120.79 C1112.91,116.30 1107.34,114.73 1097.77,114.70 C1089.70,114.68 1088.48,114.95 1081.58,118.36 C1072.55,122.83 1071.32,124.18 1048.86,154.50 C1039.48,167.15 1023.71,188.42 1013.81,201.77 C994.18,228.22 993.20,230.24 996.70,236.98 C999.51,242.42 1004.51,245.27 1010.26,244.73 C1013.00,244.48 1015.91,243.49 1017.12,242.40 ZM 1250.96 242.38 C1256.61,237.62 1257.00,235.90 1257.00,215.55 L 1257.00 197.00 L 1301.28 197.00 C1343.13,197.00 1355.81,197.59 1367.50,200.10 C1380.67,202.91 1394.22,208.67 1405.00,216.02 C1410.19,219.57 1422.57,231.54 1428.53,238.79 C1432.41,243.50 1436.46,245.32 1441.73,244.73 C1448.41,243.97 1454.00,237.56 1454.00,230.65 C1454.00,227.33 1447.34,217.64 1438.70,208.37 C1419.77,188.09 1396.99,177.28 1361.68,171.84 C1349.27,169.93 1341.88,169.58 1302.50,169.08 L 1257.50 168.50 L 1257.21 160.35 C1256.73,146.72 1248.05,148.00 1341.08,148.00 L 1419.89 148.00 L 1422.56 150.30 C1424.53,151.99 1425.46,154.04 1426.09,158.03 C1427.57,167.36 1433.52,172.51 1441.83,171.67 C1449.88,170.85 1454.80,163.39 1453.65,153.73 C1452.23,141.74 1443.20,129.68 1431.20,123.78 L 1424.54 120.50 L 1343.52 120.18 C1285.63,119.96 1261.00,120.19 1257.26,121.00 C1246.49,123.34 1234.57,134.54 1230.84,145.82 C1229.99,148.40 1229.52,162.07 1229.28,191.50 C1228.97,230.21 1229.08,233.77 1230.72,236.98 C1234.74,244.84 1244.84,247.53 1250.96,242.38 ZM 1505.05 241.45 C1506.68,239.89 1508.46,237.01 1509.00,235.06 C1510.60,229.30 1510.29,178.61 1508.63,174.72 C1504.03,163.93 1490.18,163.10 1483.99,173.24 C1482.13,176.29 1482.01,178.32 1482.01,205.00 C1482.00,236.91 1482.26,238.27 1489.00,242.82 C1493.84,246.08 1500.84,245.48 1505.05,241.45 ZM 618.68 230.06 C627.33,226.13 631.21,215.19 627.02,206.53 C623.81,199.90 619.09,197.00 611.52,197.00 C604.62,197.01 600.64,198.94 596.75,204.16 C591.78,210.84 592.47,219.19 598.53,225.91 C603.96,231.91 611.28,233.42 618.68,230.06 ZM 1105.75 229.88 C1114.90,225.45 1118.16,214.36 1113.00,205.20 C1109.63,199.22 1105.65,197.00 1098.38,197.02 C1090.68,197.04 1085.49,199.91 1082.33,205.91 C1077.21,215.60 1081.57,226.69 1092.15,230.93 C1096.08,232.50 1101.13,232.11 1105.75,229.88 ZM 956.41 196.04 C958.56,195.55 961.68,193.78 963.34,192.12 C965.86,189.60 966.43,188.12 966.77,183.30 C967.16,177.85 966.97,177.26 963.71,173.50 L 960.23 169.50 L 880.09 169.23 L 799.96 168.96 L 795.92 172.74 C792.84,175.60 791.74,177.49 791.33,180.61 C790.37,187.75 795.06,194.30 802.39,196.05 C806.91,197.13 951.76,197.12 956.41,196.04 ZM 1502.98 149.25 C1508.16,146.65 1511.00,141.77 1511.00,135.50 C1511.00,118.81 1489.63,114.16 1482.16,129.22 C1480.31,132.94 1479.96,134.81 1480.50,138.01 C1482.22,148.20 1493.67,153.93 1502.98,149.25 ZM 272.78 345.50 L 273.05 311.00 L 350.66 311.00 C407.72,311.00 429.32,311.31 432.24,312.19 C437.05,313.63 445.42,320.93 447.96,325.91 C455.37,340.45 452.11,363.45 441.28,372.98 C432.99,380.29 436.70,380.00 350.07,380.00 L 272.50 380.00 L 272.78 345.50 Z" fill="rgb(254,254,252)"/>
</g>
</svg>